<?xml version="1.0" encoding="UTF-8" standalone="no"?>
<!DOCTYPE svg PUBLIC "-//W3C//DTD SVG 1.1//EN"
 "http://www.w3.org/Graphics/SVG/1.1/DTD/svg11.dtd">
<!-- Generated by graphviz version 2.36.0 (20140111.2315)
 -->
<!-- Title: controllers_diagram Pages: 1 -->
<svg width="1593pt" height="1203pt"
 viewBox="0.00 0.00 1592.72 1202.68" xmlns="http://www.w3.org/2000/svg" xmlns:xlink="http://www.w3.org/1999/xlink">
<g id="graph0" class="graph" transform="scale(1 1) rotate(0) translate(4 1198.68)">
<title>controllers_diagram</title>
<polygon fill="white" stroke="none" points="-4,4 -4,-1198.68 1588.72,-1198.68 1588.72,4 -4,4"/>
<!-- _diagram_info -->
<g id="node1" class="node"><title>_diagram_info</title>
<text text-anchor="start" x="1193" y="-63.6" font-family="Times,serif" font-size="13.00">Controllers diagram</text>
<text text-anchor="start" x="1193" y="-49.6" font-family="Times,serif" font-size="13.00">Date: May 21 2015 &#45; 10:47</text>
<text text-anchor="start" x="1193" y="-35.6" font-family="Times,serif" font-size="13.00">Migration version: 20150520160503</text>
<text text-anchor="start" x="1193" y="-21.6" font-family="Times,serif" font-size="13.00">Generated by RailRoady 1.3.0</text>
<text text-anchor="start" x="1193" y="-7.6" font-family="Times,serif" font-size="13.00">http://railroady.prestonlee.com</text>
</g>
<!-- ProductsController -->
<g id="node2" class="node"><title>ProductsController</title>
<path fill="none" stroke="black" d="M12,-355.635C12,-355.635 107,-355.635 107,-355.635 113,-355.635 119,-361.635 119,-367.635 119,-367.635 119,-556.635 119,-556.635 119,-562.635 113,-568.635 107,-568.635 107,-568.635 12,-568.635 12,-568.635 6,-568.635 -5.68434e-14,-562.635 -5.68434e-14,-556.635 -5.68434e-14,-556.635 -5.68434e-14,-367.635 -5.68434e-14,-367.635 -5.68434e-14,-361.635 6,-355.635 12,-355.635"/>
<text text-anchor="middle" x="59.5" y="-553.435" font-family="Times,serif" font-size="14.00">ProductsController</text>
<polyline fill="none" stroke="black" points="-5.68434e-14,-545.635 119,-545.635 "/>
<text text-anchor="start" x="8" y="-530.435" font-family="Times,serif" font-size="14.00">create</text>
<text text-anchor="start" x="8" y="-515.435" font-family="Times,serif" font-size="14.00">destroy</text>
<text text-anchor="start" x="8" y="-500.435" font-family="Times,serif" font-size="14.00">edit</text>
<text text-anchor="start" x="8" y="-485.435" font-family="Times,serif" font-size="14.00">index</text>
<text text-anchor="start" x="8" y="-470.435" font-family="Times,serif" font-size="14.00">new</text>
<text text-anchor="start" x="8" y="-455.435" font-family="Times,serif" font-size="14.00">show</text>
<text text-anchor="start" x="8" y="-440.435" font-family="Times,serif" font-size="14.00">update</text>
<polyline fill="none" stroke="black" points="-5.68434e-14,-432.635 119,-432.635 "/>
<polyline fill="none" stroke="black" points="-5.68434e-14,-408.635 119,-408.635 "/>
<text text-anchor="start" x="8" y="-393.435" font-family="Times,serif" font-size="14.00">_layout</text>
<text text-anchor="start" x="8" y="-378.435" font-family="Times,serif" font-size="14.00">product_params</text>
<text text-anchor="start" x="8" y="-363.435" font-family="Times,serif" font-size="14.00">set_product</text>
</g>
<!-- OrdersController -->
<g id="node3" class="node"><title>OrdersController</title>
<path fill="none" stroke="black" d="M619.14,-332.766C619.14,-332.766 729.14,-332.766 729.14,-332.766 735.14,-332.766 741.14,-338.766 741.14,-344.766 741.14,-344.766 741.14,-488.766 741.14,-488.766 741.14,-494.766 735.14,-500.766 729.14,-500.766 729.14,-500.766 619.14,-500.766 619.14,-500.766 613.14,-500.766 607.14,-494.766 607.14,-488.766 607.14,-488.766 607.14,-344.766 607.14,-344.766 607.14,-338.766 613.14,-332.766 619.14,-332.766"/>
<text text-anchor="middle" x="674.14" y="-485.566" font-family="Times,serif" font-size="14.00">OrdersController</text>
<polyline fill="none" stroke="black" points="607.14,-477.766 741.14,-477.766 "/>
<text text-anchor="start" x="615.14" y="-462.566" font-family="Times,serif" font-size="14.00">destroy</text>
<text text-anchor="start" x="615.14" y="-447.566" font-family="Times,serif" font-size="14.00">index</text>
<text text-anchor="start" x="615.14" y="-432.566" font-family="Times,serif" font-size="14.00">send_to_user</text>
<text text-anchor="start" x="615.14" y="-417.566" font-family="Times,serif" font-size="14.00">show</text>
<text text-anchor="start" x="615.14" y="-402.566" font-family="Times,serif" font-size="14.00">user_complete</text>
<polyline fill="none" stroke="black" points="607.14,-394.766 741.14,-394.766 "/>
<polyline fill="none" stroke="black" points="607.14,-370.766 741.14,-370.766 "/>
<text text-anchor="start" x="615.14" y="-355.566" font-family="Times,serif" font-size="14.00">_layout</text>
<text text-anchor="start" x="615.14" y="-340.566" font-family="Times,serif" font-size="14.00">send_to_user_params</text>
</g>
<!-- ManufacturersController -->
<g id="node4" class="node"><title>ManufacturersController</title>
<path fill="none" stroke="black" d="M1197,-692.418C1197,-692.418 1325,-692.418 1325,-692.418 1331,-692.418 1337,-698.418 1337,-704.418 1337,-704.418 1337,-922.418 1337,-922.418 1337,-928.418 1331,-934.418 1325,-934.418 1325,-934.418 1197,-934.418 1197,-934.418 1191,-934.418 1185,-928.418 1185,-922.418 1185,-922.418 1185,-704.418 1185,-704.418 1185,-698.418 1191,-692.418 1197,-692.418"/>
<text text-anchor="middle" x="1261" y="-919.218" font-family="Times,serif" font-size="14.00">ManufacturersController</text>
<polyline fill="none" stroke="black" points="1185,-911.418 1337,-911.418 "/>
<text text-anchor="start" x="1193" y="-896.218" font-family="Times,serif" font-size="14.00">index</text>
<text text-anchor="start" x="1193" y="-881.218" font-family="Times,serif" font-size="14.00">new</text>
<text text-anchor="start" x="1193" y="-866.218" font-family="Times,serif" font-size="14.00">show</text>
<polyline fill="none" stroke="black" points="1185,-858.418 1337,-858.418 "/>
<text text-anchor="start" x="1193" y="-843.218" font-family="Times,serif" font-size="14.00">collection_path</text>
<text text-anchor="start" x="1193" y="-828.218" font-family="Times,serif" font-size="14.00">collection_url</text>
<text text-anchor="start" x="1193" y="-813.218" font-family="Times,serif" font-size="14.00">edit_resource_path</text>
<text text-anchor="start" x="1193" y="-798.218" font-family="Times,serif" font-size="14.00">edit_resource_url</text>
<text text-anchor="start" x="1193" y="-783.218" font-family="Times,serif" font-size="14.00">new_resource_path</text>
<text text-anchor="start" x="1193" y="-768.218" font-family="Times,serif" font-size="14.00">new_resource_url</text>
<text text-anchor="start" x="1193" y="-753.218" font-family="Times,serif" font-size="14.00">resource_path</text>
<text text-anchor="start" x="1193" y="-738.218" font-family="Times,serif" font-size="14.00">resource_url</text>
<polyline fill="none" stroke="black" points="1185,-730.418 1337,-730.418 "/>
<text text-anchor="start" x="1193" y="-715.218" font-family="Times,serif" font-size="14.00">_layout</text>
<text text-anchor="start" x="1193" y="-700.218" font-family="Times,serif" font-size="14.00">manufacturer_params</text>
</g>
<!-- ApplicationController -->
<g id="node5" class="node"><title>ApplicationController</title>
<path fill="none" stroke="black" d="M323.005,-404.337C323.005,-404.337 446.005,-404.337 446.005,-404.337 452.005,-404.337 458.005,-410.337 458.005,-416.337 458.005,-416.337 458.005,-530.337 458.005,-530.337 458.005,-536.337 452.005,-542.337 446.005,-542.337 446.005,-542.337 323.005,-542.337 323.005,-542.337 317.005,-542.337 311.005,-536.337 311.005,-530.337 311.005,-530.337 311.005,-416.337 311.005,-416.337 311.005,-410.337 317.005,-404.337 323.005,-404.337"/>
<text text-anchor="middle" x="384.505" y="-527.137" font-family="Times,serif" font-size="14.00">ApplicationController</text>
<polyline fill="none" stroke="black" points="311.005,-519.337 458.005,-519.337 "/>
<text text-anchor="start" x="319.005" y="-504.137" font-family="Times,serif" font-size="14.00">after_sign_in_path_for</text>
<text text-anchor="start" x="319.005" y="-489.137" font-family="Times,serif" font-size="14.00">after_sign_out_path_for</text>
<polyline fill="none" stroke="black" points="311.005,-481.337 458.005,-481.337 "/>
<polyline fill="none" stroke="black" points="311.005,-457.337 458.005,-457.337 "/>
<text text-anchor="start" x="319.005" y="-442.137" font-family="Times,serif" font-size="14.00">_layout</text>
<text text-anchor="start" x="319.005" y="-427.137" font-family="Times,serif" font-size="14.00">check_current_order</text>
<text text-anchor="start" x="319.005" y="-412.137" font-family="Times,serif" font-size="14.00">current_order</text>
</g>
<!-- ApplicationController&#45;&gt;ProductsController -->
<g id="edge1" class="edge"><title>ApplicationController&#45;&gt;ProductsController</title>
<path fill="none" stroke="black" d="M310.757,-470.795C252.792,-468.797 173.094,-466.05 119.118,-464.19"/>
</g>
<!-- ApplicationController&#45;&gt;OrdersController -->
<g id="edge2" class="edge"><title>ApplicationController&#45;&gt;OrdersController</title>
<path fill="none" stroke="black" d="M458.342,-458.915C504.097,-449.979 562.411,-438.589 606.883,-429.903"/>
</g>
<!-- SendItemsController -->
<g id="node8" class="node"><title>SendItemsController</title>
<path fill="none" stroke="black" d="M19.2491,-1018.01C19.2491,-1018.01 125.249,-1018.01 125.249,-1018.01 131.249,-1018.01 137.249,-1024.01 137.249,-1030.01 137.249,-1030.01 137.249,-1100.01 137.249,-1100.01 137.249,-1106.01 131.249,-1112.01 125.249,-1112.01 125.249,-1112.01 19.2491,-1112.01 19.2491,-1112.01 13.2491,-1112.01 7.24914,-1106.01 7.24914,-1100.01 7.24914,-1100.01 7.24914,-1030.01 7.24914,-1030.01 7.24914,-1024.01 13.2491,-1018.01 19.2491,-1018.01"/>
<text text-anchor="middle" x="72.2491" y="-1096.81" font-family="Times,serif" font-size="14.00">SendItemsController</text>
<polyline fill="none" stroke="black" points="7.24914,-1089.01 137.249,-1089.01 "/>
<polyline fill="none" stroke="black" points="7.24914,-1065.01 137.249,-1065.01 "/>
<polyline fill="none" stroke="black" points="7.24914,-1041.01 137.249,-1041.01 "/>
<text text-anchor="start" x="15.2491" y="-1025.81" font-family="Times,serif" font-size="14.00">_layout</text>
</g>
<!-- ApplicationController&#45;&gt;SendItemsController -->
<g id="edge6" class="edge"><title>ApplicationController&#45;&gt;SendItemsController</title>
<path fill="none" stroke="black" d="M348.075,-542.367C283.884,-663.996 152.231,-913.456 97.2448,-1017.64"/>
</g>
<!-- AboutController -->
<g id="node9" class="node"><title>AboutController</title>
<path fill="none" stroke="black" d="M356.472,-723.57C356.472,-723.57 438.472,-723.57 438.472,-723.57 444.472,-723.57 450.472,-729.57 450.472,-735.57 450.472,-735.57 450.472,-804.57 450.472,-804.57 450.472,-810.57 444.472,-816.57 438.472,-816.57 438.472,-816.57 356.472,-816.57 356.472,-816.57 350.472,-816.57 344.472,-810.57 344.472,-804.57 344.472,-804.57 344.472,-735.57 344.472,-735.57 344.472,-729.57 350.472,-723.57 356.472,-723.57"/>
<text text-anchor="middle" x="397.472" y="-801.37" font-family="Times,serif" font-size="14.00">AboutController</text>
<polyline fill="none" stroke="black" points="344.472,-793.57 450.472,-793.57 "/>
<text text-anchor="start" x="352.472" y="-778.37" font-family="Times,serif" font-size="14.00">index</text>
<polyline fill="none" stroke="black" points="344.472,-770.57 450.472,-770.57 "/>
<polyline fill="none" stroke="black" points="344.472,-746.57 450.472,-746.57 "/>
<text text-anchor="start" x="352.472" y="-731.37" font-family="Times,serif" font-size="14.00">_layout</text>
</g>
<!-- ApplicationController&#45;&gt;AboutController -->
<g id="edge7" class="edge"><title>ApplicationController&#45;&gt;AboutController</title>
<path fill="none" stroke="black" d="M387.529,-542.533C389.961,-598.191 393.312,-674.871 395.436,-723.458"/>
</g>
<!-- WelcomeController -->
<g id="node10" class="node"><title>WelcomeController</title>
<path fill="none" stroke="black" d="M28.2324,-686.043C28.2324,-686.043 129.232,-686.043 129.232,-686.043 135.232,-686.043 141.232,-692.043 141.232,-698.043 141.232,-698.043 141.232,-782.043 141.232,-782.043 141.232,-788.043 135.232,-794.043 129.232,-794.043 129.232,-794.043 28.2324,-794.043 28.2324,-794.043 22.2324,-794.043 16.2324,-788.043 16.2324,-782.043 16.2324,-782.043 16.2324,-698.043 16.2324,-698.043 16.2324,-692.043 22.2324,-686.043 28.2324,-686.043"/>
<text text-anchor="middle" x="78.7324" y="-778.843" font-family="Times,serif" font-size="14.00">WelcomeController</text>
<polyline fill="none" stroke="black" points="16.2324,-771.043 141.232,-771.043 "/>
<text text-anchor="start" x="24.2324" y="-755.843" font-family="Times,serif" font-size="14.00">index</text>
<text text-anchor="start" x="24.2324" y="-740.843" font-family="Times,serif" font-size="14.00">new</text>
<polyline fill="none" stroke="black" points="16.2324,-733.043 141.232,-733.043 "/>
<polyline fill="none" stroke="black" points="16.2324,-709.043 141.232,-709.043 "/>
<text text-anchor="start" x="24.2324" y="-693.843" font-family="Times,serif" font-size="14.00">_layout</text>
</g>
<!-- ApplicationController&#45;&gt;WelcomeController -->
<g id="edge8" class="edge"><title>ApplicationController&#45;&gt;WelcomeController</title>
<path fill="none" stroke="black" d="M310.876,-537.559C258.834,-582.952 189.856,-643.117 140.643,-686.042"/>
</g>
<!-- LineItemsController -->
<g id="node11" class="node"><title>LineItemsController</title>
<path fill="none" stroke="black" d="M64.526,-79.5C64.526,-79.5 168.526,-79.5 168.526,-79.5 174.526,-79.5 180.526,-85.5 180.526,-91.5 180.526,-91.5 180.526,-220.5 180.526,-220.5 180.526,-226.5 174.526,-232.5 168.526,-232.5 168.526,-232.5 64.526,-232.5 64.526,-232.5 58.526,-232.5 52.526,-226.5 52.526,-220.5 52.526,-220.5 52.526,-91.5 52.526,-91.5 52.526,-85.5 58.526,-79.5 64.526,-79.5"/>
<text text-anchor="middle" x="116.526" y="-217.3" font-family="Times,serif" font-size="14.00">LineItemsController</text>
<polyline fill="none" stroke="black" points="52.526,-209.5 180.526,-209.5 "/>
<text text-anchor="start" x="60.526" y="-194.3" font-family="Times,serif" font-size="14.00">create</text>
<text text-anchor="start" x="60.526" y="-179.3" font-family="Times,serif" font-size="14.00">destroy</text>
<text text-anchor="start" x="60.526" y="-164.3" font-family="Times,serif" font-size="14.00">destroy_all</text>
<text text-anchor="start" x="60.526" y="-149.3" font-family="Times,serif" font-size="14.00">update</text>
<polyline fill="none" stroke="black" points="52.526,-141.5 180.526,-141.5 "/>
<polyline fill="none" stroke="black" points="52.526,-117.5 180.526,-117.5 "/>
<text text-anchor="start" x="60.526" y="-102.3" font-family="Times,serif" font-size="14.00">_layout</text>
<text text-anchor="start" x="60.526" y="-87.3" font-family="Times,serif" font-size="14.00">permitted_params</text>
</g>
<!-- ApplicationController&#45;&gt;LineItemsController -->
<g id="edge9" class="edge"><title>ApplicationController&#45;&gt;LineItemsController</title>
<path fill="none" stroke="black" d="M326.027,-404.088C283.137,-353.298 224.92,-284.359 180.741,-232.042"/>
</g>
<!-- PersonsController -->
<g id="node12" class="node"><title>PersonsController</title>
<path fill="none" stroke="black" d="M470.468,-101.936C470.468,-101.936 560.468,-101.936 560.468,-101.936 566.468,-101.936 572.468,-107.936 572.468,-113.936 572.468,-113.936 572.468,-182.936 572.468,-182.936 572.468,-188.936 566.468,-194.936 560.468,-194.936 560.468,-194.936 470.468,-194.936 470.468,-194.936 464.468,-194.936 458.468,-188.936 458.468,-182.936 458.468,-182.936 458.468,-113.936 458.468,-113.936 458.468,-107.936 464.468,-101.936 470.468,-101.936"/>
<text text-anchor="middle" x="515.468" y="-179.736" font-family="Times,serif" font-size="14.00">PersonsController</text>
<polyline fill="none" stroke="black" points="458.468,-171.936 572.468,-171.936 "/>
<text text-anchor="start" x="466.468" y="-156.736" font-family="Times,serif" font-size="14.00">profile</text>
<polyline fill="none" stroke="black" points="458.468,-148.936 572.468,-148.936 "/>
<polyline fill="none" stroke="black" points="458.468,-124.936 572.468,-124.936 "/>
<text text-anchor="start" x="466.468" y="-109.736" font-family="Times,serif" font-size="14.00">_layout</text>
</g>
<!-- ApplicationController&#45;&gt;PersonsController -->
<g id="edge10" class="edge"><title>ApplicationController&#45;&gt;PersonsController</title>
<path fill="none" stroke="black" d="M412.439,-404.036C437.831,-341.044 474.598,-249.829 496.656,-195.106"/>
</g>
<!-- DeviseController -->
<g id="node13" class="node"><title>DeviseController</title>
<path fill="none" stroke="black" d="M590.997,-522.038C590.997,-522.038 730.997,-522.038 730.997,-522.038 736.997,-522.038 742.997,-528.038 742.997,-534.038 742.997,-534.038 742.997,-857.038 742.997,-857.038 742.997,-863.038 736.997,-869.038 730.997,-869.038 730.997,-869.038 590.997,-869.038 590.997,-869.038 584.997,-869.038 578.997,-863.038 578.997,-857.038 578.997,-857.038 578.997,-534.038 578.997,-534.038 578.997,-528.038 584.997,-522.038 590.997,-522.038"/>
<text text-anchor="middle" x="660.997" y="-853.838" font-family="Times,serif" font-size="14.00">DeviseController</text>
<polyline fill="none" stroke="black" points="578.997,-846.038 742.997,-846.038 "/>
<text text-anchor="start" x="586.997" y="-830.838" font-family="Times,serif" font-size="14.00">_prefixes</text>
<text text-anchor="start" x="586.997" y="-815.838" font-family="Times,serif" font-size="14.00">devise_mapping</text>
<text text-anchor="start" x="586.997" y="-800.838" font-family="Times,serif" font-size="14.00">resource</text>
<text text-anchor="start" x="586.997" y="-785.838" font-family="Times,serif" font-size="14.00">resource_class</text>
<text text-anchor="start" x="586.997" y="-770.838" font-family="Times,serif" font-size="14.00">resource_name</text>
<text text-anchor="start" x="586.997" y="-755.838" font-family="Times,serif" font-size="14.00">scope_name</text>
<text text-anchor="start" x="586.997" y="-740.838" font-family="Times,serif" font-size="14.00">signed_in_resource</text>
<polyline fill="none" stroke="black" points="578.997,-733.038 742.997,-733.038 "/>
<text text-anchor="start" x="586.997" y="-717.838" font-family="Times,serif" font-size="14.00">assert_is_devise_resource!</text>
<text text-anchor="start" x="586.997" y="-702.838" font-family="Times,serif" font-size="14.00">clean_up_passwords</text>
<text text-anchor="start" x="586.997" y="-687.838" font-family="Times,serif" font-size="14.00">devise_i18n_options</text>
<text text-anchor="start" x="586.997" y="-672.838" font-family="Times,serif" font-size="14.00">find_message</text>
<text text-anchor="start" x="586.997" y="-657.838" font-family="Times,serif" font-size="14.00">navigational_formats</text>
<text text-anchor="start" x="586.997" y="-642.838" font-family="Times,serif" font-size="14.00">require_no_authentication</text>
<text text-anchor="start" x="586.997" y="-627.838" font-family="Times,serif" font-size="14.00">resource=</text>
<text text-anchor="start" x="586.997" y="-612.838" font-family="Times,serif" font-size="14.00">resource_params</text>
<text text-anchor="start" x="586.997" y="-597.838" font-family="Times,serif" font-size="14.00">respond_with_navigational</text>
<text text-anchor="start" x="586.997" y="-582.838" font-family="Times,serif" font-size="14.00">set_flash_message</text>
<text text-anchor="start" x="586.997" y="-567.838" font-family="Times,serif" font-size="14.00">successfully_sent?</text>
<text text-anchor="start" x="586.997" y="-552.838" font-family="Times,serif" font-size="14.00">unknown_action!</text>
<polyline fill="none" stroke="black" points="578.997,-545.038 742.997,-545.038 "/>
<text text-anchor="start" x="586.997" y="-529.838" font-family="Times,serif" font-size="14.00">_layout</text>
</g>
<!-- ApplicationController&#45;&gt;DeviseController -->
<g id="edge11" class="edge"><title>ApplicationController&#45;&gt;DeviseController</title>
<path fill="none" stroke="black" d="M458.237,-532.591C495.351,-562.417 540.461,-598.67 578.701,-629.401"/>
</g>
<!-- TidingsController -->
<g id="node6" class="node"><title>TidingsController</title>
<path fill="none" stroke="black" d="M1411.13,-728.991C1411.13,-728.991 1509.13,-728.991 1509.13,-728.991 1515.13,-728.991 1521.13,-734.991 1521.13,-740.991 1521.13,-740.991 1521.13,-1003.99 1521.13,-1003.99 1521.13,-1009.99 1515.13,-1015.99 1509.13,-1015.99 1509.13,-1015.99 1411.13,-1015.99 1411.13,-1015.99 1405.13,-1015.99 1399.13,-1009.99 1399.13,-1003.99 1399.13,-1003.99 1399.13,-740.991 1399.13,-740.991 1399.13,-734.991 1405.13,-728.991 1411.13,-728.991"/>
<text text-anchor="middle" x="1460.13" y="-1000.79" font-family="Times,serif" font-size="14.00">TidingsController</text>
<polyline fill="none" stroke="black" points="1399.13,-992.991 1521.13,-992.991 "/>
<text text-anchor="start" x="1407.13" y="-977.791" font-family="Times,serif" font-size="14.00">create</text>
<text text-anchor="start" x="1407.13" y="-962.791" font-family="Times,serif" font-size="14.00">edit</text>
<text text-anchor="start" x="1407.13" y="-947.791" font-family="Times,serif" font-size="14.00">index</text>
<text text-anchor="start" x="1407.13" y="-932.791" font-family="Times,serif" font-size="14.00">new</text>
<text text-anchor="start" x="1407.13" y="-917.791" font-family="Times,serif" font-size="14.00">show</text>
<polyline fill="none" stroke="black" points="1399.13,-909.991 1521.13,-909.991 "/>
<text text-anchor="start" x="1407.13" y="-894.791" font-family="Times,serif" font-size="14.00">collection_path</text>
<text text-anchor="start" x="1407.13" y="-879.791" font-family="Times,serif" font-size="14.00">collection_url</text>
<text text-anchor="start" x="1407.13" y="-864.791" font-family="Times,serif" font-size="14.00">edit_resource_path</text>
<text text-anchor="start" x="1407.13" y="-849.791" font-family="Times,serif" font-size="14.00">edit_resource_url</text>
<text text-anchor="start" x="1407.13" y="-834.791" font-family="Times,serif" font-size="14.00">new_resource_path</text>
<text text-anchor="start" x="1407.13" y="-819.791" font-family="Times,serif" font-size="14.00">new_resource_url</text>
<text text-anchor="start" x="1407.13" y="-804.791" font-family="Times,serif" font-size="14.00">resource_path</text>
<text text-anchor="start" x="1407.13" y="-789.791" font-family="Times,serif" font-size="14.00">resource_url</text>
<polyline fill="none" stroke="black" points="1399.13,-781.991 1521.13,-781.991 "/>
<text text-anchor="start" x="1407.13" y="-766.791" font-family="Times,serif" font-size="14.00">_layout</text>
<text text-anchor="start" x="1407.13" y="-751.791" font-family="Times,serif" font-size="14.00">set_tiding</text>
<text text-anchor="start" x="1407.13" y="-736.791" font-family="Times,serif" font-size="14.00">tiding_params</text>
</g>
<!-- TipingsController -->
<g id="node7" class="node"><title>TipingsController</title>
<path fill="none" stroke="black" d="M1255.53,-395.5C1255.53,-395.5 1353.53,-395.5 1353.53,-395.5 1359.53,-395.5 1365.53,-401.5 1365.53,-407.5 1365.53,-407.5 1365.53,-625.5 1365.53,-625.5 1365.53,-631.5 1359.53,-637.5 1353.53,-637.5 1353.53,-637.5 1255.53,-637.5 1255.53,-637.5 1249.53,-637.5 1243.53,-631.5 1243.53,-625.5 1243.53,-625.5 1243.53,-407.5 1243.53,-407.5 1243.53,-401.5 1249.53,-395.5 1255.53,-395.5"/>
<text text-anchor="middle" x="1304.53" y="-622.3" font-family="Times,serif" font-size="14.00">TipingsController</text>
<polyline fill="none" stroke="black" points="1243.53,-614.5 1365.53,-614.5 "/>
<text text-anchor="start" x="1251.53" y="-599.3" font-family="Times,serif" font-size="14.00">index</text>
<text text-anchor="start" x="1251.53" y="-584.3" font-family="Times,serif" font-size="14.00">new</text>
<text text-anchor="start" x="1251.53" y="-569.3" font-family="Times,serif" font-size="14.00">show</text>
<polyline fill="none" stroke="black" points="1243.53,-561.5 1365.53,-561.5 "/>
<text text-anchor="start" x="1251.53" y="-546.3" font-family="Times,serif" font-size="14.00">collection_path</text>
<text text-anchor="start" x="1251.53" y="-531.3" font-family="Times,serif" font-size="14.00">collection_url</text>
<text text-anchor="start" x="1251.53" y="-516.3" font-family="Times,serif" font-size="14.00">edit_resource_path</text>
<text text-anchor="start" x="1251.53" y="-501.3" font-family="Times,serif" font-size="14.00">edit_resource_url</text>
<text text-anchor="start" x="1251.53" y="-486.3" font-family="Times,serif" font-size="14.00">new_resource_path</text>
<text text-anchor="start" x="1251.53" y="-471.3" font-family="Times,serif" font-size="14.00">new_resource_url</text>
<text text-anchor="start" x="1251.53" y="-456.3" font-family="Times,serif" font-size="14.00">resource_path</text>
<text text-anchor="start" x="1251.53" y="-441.3" font-family="Times,serif" font-size="14.00">resource_url</text>
<polyline fill="none" stroke="black" points="1243.53,-433.5 1365.53,-433.5 "/>
<text text-anchor="start" x="1251.53" y="-418.3" font-family="Times,serif" font-size="14.00">_layout</text>
<text text-anchor="start" x="1251.53" y="-403.3" font-family="Times,serif" font-size="14.00">tiping_params</text>
</g>
<!-- Devise::UnlocksController -->
<g id="node14" class="node"><title>Devise::UnlocksController</title>
<path fill="none" stroke="black" d="M877.526,-408.636C877.526,-408.636 1109.53,-408.636 1109.53,-408.636 1115.53,-408.636 1121.53,-414.636 1121.53,-420.636 1121.53,-420.636 1121.53,-533.636 1121.53,-533.636 1121.53,-539.636 1115.53,-545.636 1109.53,-545.636 1109.53,-545.636 877.526,-545.636 877.526,-545.636 871.526,-545.636 865.526,-539.636 865.526,-533.636 865.526,-533.636 865.526,-420.636 865.526,-420.636 865.526,-414.636 871.526,-408.636 877.526,-408.636"/>
<text text-anchor="middle" x="993.526" y="-530.436" font-family="Times,serif" font-size="14.00">Devise::UnlocksController</text>
<polyline fill="none" stroke="black" points="865.526,-522.636 1121.53,-522.636 "/>
<text text-anchor="start" x="873.526" y="-507.436" font-family="Times,serif" font-size="14.00">create</text>
<text text-anchor="start" x="873.526" y="-492.436" font-family="Times,serif" font-size="14.00">new</text>
<text text-anchor="start" x="873.526" y="-477.436" font-family="Times,serif" font-size="14.00">show</text>
<polyline fill="none" stroke="black" points="865.526,-469.636 1121.53,-469.636 "/>
<text text-anchor="start" x="873.526" y="-454.436" font-family="Times,serif" font-size="14.00">after_sending_unlock_instructions_path_for</text>
<text text-anchor="start" x="873.526" y="-439.436" font-family="Times,serif" font-size="14.00">after_unlock_path_for</text>
<polyline fill="none" stroke="black" points="865.526,-431.636 1121.53,-431.636 "/>
<text text-anchor="start" x="873.526" y="-416.436" font-family="Times,serif" font-size="14.00">_layout</text>
</g>
<!-- DeviseController&#45;&gt;Devise::UnlocksController -->
<g id="edge12" class="edge"><title>DeviseController&#45;&gt;Devise::UnlocksController</title>
<path fill="none" stroke="black" d="M743.195,-641.551C787.238,-612.624 841.961,-576.682 889,-545.788"/>
</g>
<!-- Devise::ConfirmationsController -->
<g id="node15" class="node"><title>Devise::ConfirmationsController</title>
<path fill="none" stroke="black" d="M800.824,-86.1735C800.824,-86.1735 1076.82,-86.1735 1076.82,-86.1735 1082.82,-86.1735 1088.82,-92.1735 1088.82,-98.1735 1088.82,-98.1735 1088.82,-211.174 1088.82,-211.174 1088.82,-217.174 1082.82,-223.174 1076.82,-223.174 1076.82,-223.174 800.824,-223.174 800.824,-223.174 794.824,-223.174 788.824,-217.174 788.824,-211.174 788.824,-211.174 788.824,-98.1735 788.824,-98.1735 788.824,-92.1735 794.824,-86.1735 800.824,-86.1735"/>
<text text-anchor="middle" x="938.824" y="-207.974" font-family="Times,serif" font-size="14.00">Devise::ConfirmationsController</text>
<polyline fill="none" stroke="black" points="788.824,-200.174 1088.82,-200.174 "/>
<text text-anchor="start" x="796.824" y="-184.974" font-family="Times,serif" font-size="14.00">create</text>
<text text-anchor="start" x="796.824" y="-169.974" font-family="Times,serif" font-size="14.00">new</text>
<text text-anchor="start" x="796.824" y="-154.974" font-family="Times,serif" font-size="14.00">show</text>
<polyline fill="none" stroke="black" points="788.824,-147.174 1088.82,-147.174 "/>
<text text-anchor="start" x="796.824" y="-131.974" font-family="Times,serif" font-size="14.00">after_confirmation_path_for</text>
<text text-anchor="start" x="796.824" y="-116.974" font-family="Times,serif" font-size="14.00">after_resending_confirmation_instructions_path_for</text>
<polyline fill="none" stroke="black" points="788.824,-109.174 1088.82,-109.174 "/>
<text text-anchor="start" x="796.824" y="-93.9735" font-family="Times,serif" font-size="14.00">_layout</text>
</g>
<!-- DeviseController&#45;&gt;Devise::ConfirmationsController -->
<g id="edge13" class="edge"><title>DeviseController&#45;&gt;Devise::ConfirmationsController</title>
<path fill="none" stroke="black" d="M743.039,-535.821C796.411,-431.918 863.321,-301.66 903.488,-223.465"/>
</g>
<!-- Devise::OmniauthCallbacksController -->
<g id="node16" class="node"><title>Devise::OmniauthCallbacksController</title>
<path fill="none" stroke="black" d="M295.658,-1019.7C295.658,-1019.7 496.658,-1019.7 496.658,-1019.7 502.658,-1019.7 508.658,-1025.7 508.658,-1031.7 508.658,-1031.7 508.658,-1144.7 508.658,-1144.7 508.658,-1150.7 502.658,-1156.7 496.658,-1156.7 496.658,-1156.7 295.658,-1156.7 295.658,-1156.7 289.658,-1156.7 283.658,-1150.7 283.658,-1144.7 283.658,-1144.7 283.658,-1031.7 283.658,-1031.7 283.658,-1025.7 289.658,-1019.7 295.658,-1019.7"/>
<text text-anchor="middle" x="396.158" y="-1141.5" font-family="Times,serif" font-size="14.00">Devise::OmniauthCallbacksController</text>
<polyline fill="none" stroke="black" points="283.658,-1133.7 508.658,-1133.7 "/>
<text text-anchor="start" x="291.658" y="-1118.5" font-family="Times,serif" font-size="14.00">failure</text>
<text text-anchor="start" x="291.658" y="-1103.5" font-family="Times,serif" font-size="14.00">passthru</text>
<polyline fill="none" stroke="black" points="283.658,-1095.7 508.658,-1095.7 "/>
<text text-anchor="start" x="291.658" y="-1080.5" font-family="Times,serif" font-size="14.00">after_omniauth_failure_path_for</text>
<text text-anchor="start" x="291.658" y="-1065.5" font-family="Times,serif" font-size="14.00">failed_strategy</text>
<text text-anchor="start" x="291.658" y="-1050.5" font-family="Times,serif" font-size="14.00">failure_message</text>
<polyline fill="none" stroke="black" points="283.658,-1042.7 508.658,-1042.7 "/>
<text text-anchor="start" x="291.658" y="-1027.5" font-family="Times,serif" font-size="14.00">_layout</text>
</g>
<!-- DeviseController&#45;&gt;Devise::OmniauthCallbacksController -->
<g id="edge14" class="edge"><title>DeviseController&#45;&gt;Devise::OmniauthCallbacksController</title>
<path fill="none" stroke="black" d="M578.833,-817.357C533.952,-883.898 480.028,-963.848 442.449,-1019.56"/>
</g>
<!-- Devise::SessionsController -->
<g id="node17" class="node"><title>Devise::SessionsController</title>
<path fill="none" stroke="black" d="M904.937,-662.857C904.937,-662.857 1044.94,-662.857 1044.94,-662.857 1050.94,-662.857 1056.94,-668.857 1056.94,-674.857 1056.94,-674.857 1056.94,-847.857 1056.94,-847.857 1056.94,-853.857 1050.94,-859.857 1044.94,-859.857 1044.94,-859.857 904.937,-859.857 904.937,-859.857 898.937,-859.857 892.937,-853.857 892.937,-847.857 892.937,-847.857 892.937,-674.857 892.937,-674.857 892.937,-668.857 898.937,-662.857 904.937,-662.857"/>
<text text-anchor="middle" x="974.937" y="-844.657" font-family="Times,serif" font-size="14.00">Devise::SessionsController</text>
<polyline fill="none" stroke="black" points="892.937,-836.857 1056.94,-836.857 "/>
<text text-anchor="start" x="900.937" y="-821.657" font-family="Times,serif" font-size="14.00">create</text>
<text text-anchor="start" x="900.937" y="-806.657" font-family="Times,serif" font-size="14.00">destroy</text>
<text text-anchor="start" x="900.937" y="-791.657" font-family="Times,serif" font-size="14.00">new</text>
<polyline fill="none" stroke="black" points="892.937,-783.857 1056.94,-783.857 "/>
<text text-anchor="start" x="900.937" y="-768.657" font-family="Times,serif" font-size="14.00">auth_options</text>
<text text-anchor="start" x="900.937" y="-753.657" font-family="Times,serif" font-size="14.00">serialize_options</text>
<text text-anchor="start" x="900.937" y="-738.657" font-family="Times,serif" font-size="14.00">sign_in_params</text>
<polyline fill="none" stroke="black" points="892.937,-730.857 1056.94,-730.857 "/>
<text text-anchor="start" x="900.937" y="-715.657" font-family="Times,serif" font-size="14.00">_layout</text>
<text text-anchor="start" x="900.937" y="-700.657" font-family="Times,serif" font-size="14.00">all_signed_out?</text>
<text text-anchor="start" x="900.937" y="-685.657" font-family="Times,serif" font-size="14.00">respond_to_on_destroy</text>
<text text-anchor="start" x="900.937" y="-670.657" font-family="Times,serif" font-size="14.00">verify_signed_out_user</text>
</g>
<!-- DeviseController&#45;&gt;Devise::SessionsController -->
<g id="edge15" class="edge"><title>DeviseController&#45;&gt;Devise::SessionsController</title>
<path fill="none" stroke="black" d="M743.071,-712.745C789.216,-722.42 846.641,-734.459 892.797,-744.136"/>
</g>
<!-- Devise::PasswordsController -->
<g id="node18" class="node"><title>Devise::PasswordsController</title>
<path fill="none" stroke="black" d="M839.927,-987.731C839.927,-987.731 1117.93,-987.731 1117.93,-987.731 1123.93,-987.731 1129.93,-993.731 1129.93,-999.731 1129.93,-999.731 1129.93,-1157.73 1129.93,-1157.73 1129.93,-1163.73 1123.93,-1169.73 1117.93,-1169.73 1117.93,-1169.73 839.927,-1169.73 839.927,-1169.73 833.927,-1169.73 827.927,-1163.73 827.927,-1157.73 827.927,-1157.73 827.927,-999.731 827.927,-999.731 827.927,-993.731 833.927,-987.731 839.927,-987.731"/>
<text text-anchor="middle" x="978.927" y="-1154.53" font-family="Times,serif" font-size="14.00">Devise::PasswordsController</text>
<polyline fill="none" stroke="black" points="827.927,-1146.73 1129.93,-1146.73 "/>
<text text-anchor="start" x="835.927" y="-1131.53" font-family="Times,serif" font-size="14.00">create</text>
<text text-anchor="start" x="835.927" y="-1116.53" font-family="Times,serif" font-size="14.00">edit</text>
<text text-anchor="start" x="835.927" y="-1101.53" font-family="Times,serif" font-size="14.00">new</text>
<text text-anchor="start" x="835.927" y="-1086.53" font-family="Times,serif" font-size="14.00">update</text>
<polyline fill="none" stroke="black" points="827.927,-1078.73 1129.93,-1078.73 "/>
<text text-anchor="start" x="835.927" y="-1063.53" font-family="Times,serif" font-size="14.00">after_resetting_password_path_for</text>
<text text-anchor="start" x="835.927" y="-1048.53" font-family="Times,serif" font-size="14.00">after_sending_reset_password_instructions_path_for</text>
<text text-anchor="start" x="835.927" y="-1033.53" font-family="Times,serif" font-size="14.00">assert_reset_token_passed</text>
<text text-anchor="start" x="835.927" y="-1018.53" font-family="Times,serif" font-size="14.00">unlockable?</text>
<polyline fill="none" stroke="black" points="827.927,-1010.73 1129.93,-1010.73 "/>
<text text-anchor="start" x="835.927" y="-995.531" font-family="Times,serif" font-size="14.00">_layout</text>
</g>
<!-- DeviseController&#45;&gt;Devise::PasswordsController -->
<g id="edge16" class="edge"><title>DeviseController&#45;&gt;Devise::PasswordsController</title>
<path fill="none" stroke="black" d="M743.285,-794.718C792.686,-854.259 855.077,-929.458 903.249,-987.519"/>
</g>
<!-- Devise::RegistrationsController -->
<g id="node19" class="node"><title>Devise::RegistrationsController</title>
<path fill="none" stroke="black" d="M581.486,-892.183C581.486,-892.183 750.486,-892.183 750.486,-892.183 756.486,-892.183 762.486,-898.183 762.486,-904.183 762.486,-904.183 762.486,-1182.18 762.486,-1182.18 762.486,-1188.18 756.486,-1194.18 750.486,-1194.18 750.486,-1194.18 581.486,-1194.18 581.486,-1194.18 575.486,-1194.18 569.486,-1188.18 569.486,-1182.18 569.486,-1182.18 569.486,-904.183 569.486,-904.183 569.486,-898.183 575.486,-892.183 581.486,-892.183"/>
<text text-anchor="middle" x="665.986" y="-1178.98" font-family="Times,serif" font-size="14.00">Devise::RegistrationsController</text>
<polyline fill="none" stroke="black" points="569.486,-1171.18 762.486,-1171.18 "/>
<text text-anchor="start" x="577.486" y="-1155.98" font-family="Times,serif" font-size="14.00">cancel</text>
<text text-anchor="start" x="577.486" y="-1140.98" font-family="Times,serif" font-size="14.00">create</text>
<text text-anchor="start" x="577.486" y="-1125.98" font-family="Times,serif" font-size="14.00">destroy</text>
<text text-anchor="start" x="577.486" y="-1110.98" font-family="Times,serif" font-size="14.00">edit</text>
<text text-anchor="start" x="577.486" y="-1095.98" font-family="Times,serif" font-size="14.00">new</text>
<text text-anchor="start" x="577.486" y="-1080.98" font-family="Times,serif" font-size="14.00">update</text>
<polyline fill="none" stroke="black" points="569.486,-1073.18 762.486,-1073.18 "/>
<text text-anchor="start" x="577.486" y="-1057.98" font-family="Times,serif" font-size="14.00">account_update_params</text>
<text text-anchor="start" x="577.486" y="-1042.98" font-family="Times,serif" font-size="14.00">after_inactive_sign_up_path_for</text>
<text text-anchor="start" x="577.486" y="-1027.98" font-family="Times,serif" font-size="14.00">after_sign_up_path_for</text>
<text text-anchor="start" x="577.486" y="-1012.98" font-family="Times,serif" font-size="14.00">after_update_path_for</text>
<text text-anchor="start" x="577.486" y="-997.983" font-family="Times,serif" font-size="14.00">authenticate_scope!</text>
<text text-anchor="start" x="577.486" y="-982.983" font-family="Times,serif" font-size="14.00">build_resource</text>
<text text-anchor="start" x="577.486" y="-967.983" font-family="Times,serif" font-size="14.00">sign_up</text>
<text text-anchor="start" x="577.486" y="-952.983" font-family="Times,serif" font-size="14.00">sign_up_params</text>
<text text-anchor="start" x="577.486" y="-937.983" font-family="Times,serif" font-size="14.00">update_needs_confirmation?</text>
<text text-anchor="start" x="577.486" y="-922.983" font-family="Times,serif" font-size="14.00">update_resource</text>
<polyline fill="none" stroke="black" points="569.486,-915.183 762.486,-915.183 "/>
<text text-anchor="start" x="577.486" y="-899.983" font-family="Times,serif" font-size="14.00">_layout</text>
</g>
<!-- DeviseController&#45;&gt;Devise::RegistrationsController -->
<g id="edge17" class="edge"><title>DeviseController&#45;&gt;Devise::RegistrationsController</title>
<path fill="none" stroke="black" d="M663.488,-869.106C663.597,-876.752 663.707,-884.399 663.816,-891.987"/>
</g>
<!-- InheritedResources::Base -->
<g id="node20" class="node"><title>InheritedResources::Base</title>
<ellipse fill="none" stroke="black" cx="1483.98" cy="-605.183" rx="100.983" ry="18"/>
<text text-anchor="middle" x="1483.98" y="-601.483" font-family="Times,serif" font-size="14.00">InheritedResources::Base</text>
</g>
<!-- InheritedResources::Base&#45;&gt;ManufacturersController -->
<g id="edge3" class="edge"><title>InheritedResources::Base&#45;&gt;ManufacturersController</title>
<path fill="none" stroke="black" d="M1464.97,-622.937C1436.85,-649.197 1382.59,-699.869 1337.1,-742.351"/>
</g>
<!-- InheritedResources::Base&#45;&gt;TidingsController -->
<g id="edge4" class="edge"><title>InheritedResources::Base&#45;&gt;TidingsController</title>
<path fill="none" stroke="black" d="M1482.34,-623.556C1480.32,-646.203 1476.69,-686.871 1472.95,-728.86"/>
</g>
<!-- InheritedResources::Base&#45;&gt;TipingsController -->
<g id="edge5" class="edge"><title>InheritedResources::Base&#45;&gt;TipingsController</title>
<path fill="none" stroke="black" d="M1449.38,-588.084C1425.65,-576.356 1393.52,-560.478 1365.55,-546.655"/>
</g>
</g>
</svg>
