<?xml version="1.0" encoding="UTF-8" standalone="no"?>
<!DOCTYPE svg PUBLIC "-//W3C//DTD SVG 1.1//EN"
 "http://www.w3.org/Graphics/SVG/1.1/DTD/svg11.dtd">
<!-- Generated by graphviz version 2.36.0 (20140111.2315)
 -->
<!-- Title: models_diagram Pages: 1 -->
<svg width="646pt" height="302pt"
 viewBox="0.00 0.00 646.00 302.00" xmlns="http://www.w3.org/2000/svg" xmlns:xlink="http://www.w3.org/1999/xlink">
<g id="graph0" class="graph" transform="scale(1 1) rotate(0) translate(4 298)">
<title>models_diagram</title>
<polygon fill="white" stroke="none" points="-4,4 -4,-298 642,-298 642,4 -4,4"/>
<!-- _diagram_info -->
<g id="node1" class="node"><title>_diagram_info</title>
<text text-anchor="start" x="8" y="-279.6" font-family="Times,serif" font-size="13.00">Models diagram</text>
<text text-anchor="start" x="8" y="-265.6" font-family="Times,serif" font-size="13.00">Date: May 21 2015 &#45; 10:47</text>
<text text-anchor="start" x="8" y="-251.6" font-family="Times,serif" font-size="13.00">Migration version: 20150520160503</text>
<text text-anchor="start" x="8" y="-237.6" font-family="Times,serif" font-size="13.00">Generated by RailRoady 1.3.0</text>
<text text-anchor="start" x="8" y="-223.6" font-family="Times,serif" font-size="13.00">http://railroady.prestonlee.com</text>
</g>
<!-- LineItem -->
<g id="node2" class="node"><title>LineItem</title>
<ellipse fill="none" stroke="black" cx="149" cy="-18" rx="43.319" ry="18"/>
<text text-anchor="middle" x="149" y="-14.3" font-family="Times,serif" font-size="14.00">LineItem</text>
</g>
<!-- Product -->
<g id="node3" class="node"><title>Product</title>
<ellipse fill="none" stroke="black" cx="149" cy="-90" rx="38.0212" ry="18"/>
<text text-anchor="middle" x="149" y="-86.3" font-family="Times,serif" font-size="14.00">Product</text>
</g>
<!-- Product&#45;&gt;LineItem -->
<g id="edge2" class="edge"><title>Product&#45;&gt;LineItem</title>
<path fill="none" stroke="#35b5a8" d="M149,-63.6398C149,-58.0629 149,-52.1319 149,-46.4761"/>
<ellipse fill="none" stroke="#35b5a8" cx="149" cy="-67.6966" rx="4" ry="4"/>
<polygon fill="#35b5a8" stroke="#35b5a8" points="149,-46.1043 153.5,-36.1043 149,-41.1043 149,-36.1043 149,-36.1043 149,-36.1043 149,-41.1043 144.5,-36.1044 149,-46.1043 149,-46.1043"/>
</g>
<!-- User -->
<g id="node4" class="node"><title>User</title>
<ellipse fill="none" stroke="black" cx="365" cy="-162" rx="26.949" ry="18"/>
<text text-anchor="middle" x="365" y="-158.3" font-family="Times,serif" font-size="14.00">User</text>
</g>
<!-- Order -->
<g id="node8" class="node"><title>Order</title>
<ellipse fill="none" stroke="black" cx="365" cy="-90" rx="31.2965" ry="18"/>
<text text-anchor="middle" x="365" y="-86.3" font-family="Times,serif" font-size="14.00">Order</text>
</g>
<!-- User&#45;&gt;Order -->
<g id="edge4" class="edge"><title>User&#45;&gt;Order</title>
<path fill="none" stroke="#31f375" d="M365,-135.64C365,-130.063 365,-124.132 365,-118.476"/>
<ellipse fill="none" stroke="#31f375" cx="365" cy="-139.697" rx="4" ry="4"/>
<polygon fill="#31f375" stroke="#31f375" points="365,-118.104 369.5,-108.104 365,-113.104 365,-108.104 365,-108.104 365,-108.104 365,-113.104 360.5,-108.104 365,-118.104 365,-118.104"/>
</g>
<!-- Tiping -->
<g id="node5" class="node"><title>Tiping</title>
<ellipse fill="none" stroke="black" cx="149" cy="-162" rx="34.1708" ry="18"/>
<text text-anchor="middle" x="149" y="-158.3" font-family="Times,serif" font-size="14.00">Tiping</text>
</g>
<!-- Tiping&#45;&gt;Product -->
<g id="edge6" class="edge"><title>Tiping&#45;&gt;Product</title>
<path fill="none" stroke="#a48fe0" d="M149,-135.64C149,-130.063 149,-124.132 149,-118.476"/>
<ellipse fill="none" stroke="#a48fe0" cx="149" cy="-139.697" rx="4" ry="4"/>
<polygon fill="#a48fe0" stroke="#a48fe0" points="149,-118.104 153.5,-108.104 149,-113.104 149,-108.104 149,-108.104 149,-108.104 149,-113.104 144.5,-108.104 149,-118.104 149,-118.104"/>
</g>
<!-- Manufacturer -->
<g id="node6" class="node"><title>Manufacturer</title>
<ellipse fill="none" stroke="black" cx="261" cy="-162" rx="59.2173" ry="18"/>
<text text-anchor="middle" x="261" y="-158.3" font-family="Times,serif" font-size="14.00">Manufacturer</text>
</g>
<!-- Manufacturer&#45;&gt;Product -->
<g id="edge8" class="edge"><title>Manufacturer&#45;&gt;Product</title>
<path fill="none" stroke="#135c54" d="M229.023,-141.014C213.544,-131.34 195.043,-119.777 179.732,-110.207"/>
<ellipse fill="none" stroke="#135c54" cx="232.752" cy="-143.345" rx="4.00002" ry="4.00002"/>
<polygon fill="#135c54" stroke="#135c54" points="179.612,-110.132 173.517,-101.016 175.372,-107.482 171.132,-104.832 171.132,-104.832 171.132,-104.832 175.372,-107.482 168.747,-108.648 179.612,-110.132 179.612,-110.132"/>
</g>
<!-- AdminUser -->
<g id="node7" class="node"><title>AdminUser</title>
<ellipse fill="none" stroke="black" cx="462" cy="-162" rx="51.4931" ry="18"/>
<text text-anchor="middle" x="462" y="-158.3" font-family="Times,serif" font-size="14.00">AdminUser</text>
</g>
<!-- Order&#45;&gt;LineItem -->
<g id="edge11" class="edge"><title>Order&#45;&gt;LineItem</title>
<path fill="none" stroke="#ca7dca" d="M330.731,-77.8944C293.054,-65.6841 232.467,-46.0494 191.721,-32.8446"/>
<ellipse fill="none" stroke="#ca7dca" cx="334.709" cy="-79.1834" rx="4.00001" ry="4.00001"/>
<polygon fill="#ca7dca" stroke="#ca7dca" points="191.583,-32.8002 183.458,-25.4364 186.827,-31.2587 182.07,-29.7172 182.07,-29.7172 182.07,-29.7172 186.827,-31.2587 180.683,-33.9981 191.583,-32.8002 191.583,-32.8002"/>
</g>
<!-- Tiding -->
<g id="node9" class="node"><title>Tiding</title>
<ellipse fill="none" stroke="black" cx="604" cy="-162" rx="34.1708" ry="18"/>
<text text-anchor="middle" x="604" y="-158.3" font-family="Times,serif" font-size="14.00">Tiding</text>
</g>
<!-- ActiveRecord::Base -->
<g id="node10" class="node"><title>ActiveRecord::Base</title>
<ellipse fill="none" stroke="black" cx="313" cy="-255" rx="81.3646" ry="18"/>
<text text-anchor="middle" x="313" y="-251.3" font-family="Times,serif" font-size="14.00">ActiveRecord::Base</text>
</g>
<!-- ActiveRecord::Base&#45;&gt;LineItem -->
<g id="edge1" class="edge"><title>ActiveRecord::Base&#45;&gt;LineItem</title>
<path fill="none" stroke="black" d="M278.794,-238.618C261.883,-231.296 241.059,-222.699 222,-216 167.457,-196.829 131.766,-226.192 97,-180 87.981,-168.017 91.6937,-96.5545 102,-72 108.092,-57.485 119.842,-44.235 130.069,-34.6138"/>
</g>
<!-- ActiveRecord::Base&#45;&gt;Product -->
<g id="edge3" class="edge"><title>ActiveRecord::Base&#45;&gt;Product</title>
<path fill="none" stroke="black" d="M278.302,-238.603C261.455,-231.36 240.829,-222.836 222,-216 171.259,-197.579 138.018,-223.461 106,-180 88.697,-156.513 113.337,-124.973 131.844,-106.432"/>
</g>
<!-- ActiveRecord::Base&#45;&gt;User -->
<g id="edge5" class="edge"><title>ActiveRecord::Base&#45;&gt;User</title>
<path fill="none" stroke="black" d="M322.781,-236.884C332.254,-220.305 346.51,-195.357 355.787,-179.123"/>
</g>
<!-- ActiveRecord::Base&#45;&gt;Tiping -->
<g id="edge7" class="edge"><title>ActiveRecord::Base&#45;&gt;Tiping</title>
<path fill="none" stroke="black" d="M284.433,-238.149C252.405,-220.377 201.113,-191.917 171.701,-175.596"/>
</g>
<!-- ActiveRecord::Base&#45;&gt;Manufacturer -->
<g id="edge9" class="edge"><title>ActiveRecord::Base&#45;&gt;Manufacturer</title>
<path fill="none" stroke="black" d="M303.219,-236.884C293.922,-220.614 280.019,-196.284 270.737,-180.04"/>
</g>
<!-- ActiveRecord::Base&#45;&gt;AdminUser -->
<g id="edge10" class="edge"><title>ActiveRecord::Base&#45;&gt;AdminUser</title>
<path fill="none" stroke="black" d="M339.295,-237.941C367.032,-221.001 410.392,-194.519 437.45,-177.993"/>
</g>
<!-- ActiveRecord::Base&#45;&gt;Order -->
<g id="edge12" class="edge"><title>ActiveRecord::Base&#45;&gt;Order</title>
<path fill="none" stroke="black" d="M388.835,-248.473C435.527,-240.693 492.008,-222.435 522,-180 556.992,-130.49 449.388,-104.977 394.762,-95.4711"/>
</g>
<!-- ActiveRecord::Base&#45;&gt;Tiding -->
<g id="edge13" class="edge"><title>ActiveRecord::Base&#45;&gt;Tiding</title>
<path fill="none" stroke="black" d="M360.235,-240.297C409.344,-225.891 488.349,-202.268 556,-180 562.718,-177.789 569.925,-175.299 576.659,-172.922"/>
</g>
</g>
</svg>
