<?xml version="1.0" encoding="UTF-8" standalone="no"?>
<!DOCTYPE svg PUBLIC "-//W3C//DTD SVG 1.1//EN"
 "http://www.w3.org/Graphics/SVG/1.1/DTD/svg11.dtd">
<!-- Generated by graphviz version 2.36.0 (20140111.2315)
 -->
<!-- Title: models_diagram Pages: 1 -->
<svg width="997pt" height="772pt"
 viewBox="0.00 0.00 997.20 772.00" xmlns="http://www.w3.org/2000/svg" xmlns:xlink="http://www.w3.org/1999/xlink">
<g id="graph0" class="graph" transform="scale(1 1) rotate(0) translate(4 768)">
<title>models_diagram</title>
<polygon fill="white" stroke="none" points="-4,4 -4,-768 993.203,-768 993.203,4 -4,4"/>
<!-- _diagram_info -->
<g id="node1" class="node"><title>_diagram_info</title>
<text text-anchor="start" x="87.2028" y="-749.6" font-family="Times,serif" font-size="13.00">Models diagram</text>
<text text-anchor="start" x="87.2028" y="-735.6" font-family="Times,serif" font-size="13.00">Date: May 21 2015 &#45; 10:47</text>
<text text-anchor="start" x="87.2028" y="-721.6" font-family="Times,serif" font-size="13.00">Migration version: 20150520160503</text>
<text text-anchor="start" x="87.2028" y="-707.6" font-family="Times,serif" font-size="13.00">Generated by RailRoady 1.3.0</text>
<text text-anchor="start" x="87.2028" y="-693.6" font-family="Times,serif" font-size="13.00">http://railroady.prestonlee.com</text>
</g>
<!-- LineItem -->
<g id="node2" class="node"><title>LineItem</title>
<path fill="none" stroke="black" d="M97.7028,-1C97.7028,-1 204.703,-1 204.703,-1 210.703,-1 216.703,-7 216.703,-13 216.703,-13 216.703,-125 216.703,-125 216.703,-131 210.703,-137 204.703,-137 204.703,-137 97.7028,-137 97.7028,-137 91.7028,-137 85.7028,-131 85.7028,-125 85.7028,-125 85.7028,-13 85.7028,-13 85.7028,-7 91.7028,-1 97.7028,-1"/>
<text text-anchor="middle" x="151.203" y="-121.8" font-family="Times,serif" font-size="14.00">LineItem</text>
<polyline fill="none" stroke="black" points="85.7028,-114 216.703,-114 "/>
<text text-anchor="start" x="93.7028" y="-98.8" font-family="Times,serif" font-size="14.00">id :integer</text>
<text text-anchor="start" x="93.7028" y="-83.8" font-family="Times,serif" font-size="14.00">count :integer</text>
<text text-anchor="start" x="93.7028" y="-68.8" font-family="Times,serif" font-size="14.00">total_price :float</text>
<text text-anchor="start" x="93.7028" y="-53.8" font-family="Times,serif" font-size="14.00">created_at :datetime</text>
<text text-anchor="start" x="93.7028" y="-38.8" font-family="Times,serif" font-size="14.00">updated_at :datetime</text>
<text text-anchor="start" x="93.7028" y="-23.8" font-family="Times,serif" font-size="14.00">product_id :integer</text>
<text text-anchor="start" x="93.7028" y="-8.8" font-family="Times,serif" font-size="14.00">order_id :integer</text>
</g>
<!-- Product -->
<g id="node3" class="node"><title>Product</title>
<path fill="none" stroke="black" d="M73.7028,-182.5C73.7028,-182.5 228.703,-182.5 228.703,-182.5 234.703,-182.5 240.703,-188.5 240.703,-194.5 240.703,-194.5 240.703,-351.5 240.703,-351.5 240.703,-357.5 234.703,-363.5 228.703,-363.5 228.703,-363.5 73.7028,-363.5 73.7028,-363.5 67.7028,-363.5 61.7028,-357.5 61.7028,-351.5 61.7028,-351.5 61.7028,-194.5 61.7028,-194.5 61.7028,-188.5 67.7028,-182.5 73.7028,-182.5"/>
<text text-anchor="middle" x="151.203" y="-348.3" font-family="Times,serif" font-size="14.00">Product</text>
<polyline fill="none" stroke="black" points="61.7028,-340.5 240.703,-340.5 "/>
<text text-anchor="start" x="69.7028" y="-325.3" font-family="Times,serif" font-size="14.00">id :integer</text>
<text text-anchor="start" x="69.7028" y="-310.3" font-family="Times,serif" font-size="14.00">title :string</text>
<text text-anchor="start" x="69.7028" y="-295.3" font-family="Times,serif" font-size="14.00">description :text</text>
<text text-anchor="start" x="69.7028" y="-280.3" font-family="Times,serif" font-size="14.00">image_url :string</text>
<text text-anchor="start" x="69.7028" y="-265.3" font-family="Times,serif" font-size="14.00">price :decimal</text>
<text text-anchor="start" x="69.7028" y="-250.3" font-family="Times,serif" font-size="14.00">created_at :datetime</text>
<text text-anchor="start" x="69.7028" y="-235.3" font-family="Times,serif" font-size="14.00">updated_at :datetime</text>
<text text-anchor="start" x="69.7028" y="-220.3" font-family="Times,serif" font-size="14.00">manufacturer_id :integer</text>
<text text-anchor="start" x="69.7028" y="-205.3" font-family="Times,serif" font-size="14.00">manufacturer_title_id :integer</text>
<text text-anchor="start" x="69.7028" y="-190.3" font-family="Times,serif" font-size="14.00">tiping_id :integer</text>
</g>
<!-- Product&#45;&gt;LineItem -->
<g id="edge2" class="edge"><title>Product&#45;&gt;LineItem</title>
<path fill="none" stroke="#14a885" d="M151.203,-174.019C151.203,-165.027 151.203,-156.003 151.203,-147.232"/>
<ellipse fill="none" stroke="#14a885" cx="151.203" cy="-178.223" rx="4" ry="4"/>
<polygon fill="#14a885" stroke="#14a885" points="151.203,-147.07 155.703,-137.07 151.203,-142.07 151.203,-137.07 151.203,-137.07 151.203,-137.07 151.203,-142.07 146.703,-137.07 151.203,-147.07 151.203,-147.07"/>
</g>
<!-- User -->
<g id="node4" class="node"><title>User</title>
<path fill="none" stroke="black" d="M396.203,-408.5C396.203,-408.5 572.203,-408.5 572.203,-408.5 578.203,-408.5 584.203,-414.5 584.203,-420.5 584.203,-420.5 584.203,-637.5 584.203,-637.5 584.203,-643.5 578.203,-649.5 572.203,-649.5 572.203,-649.5 396.203,-649.5 396.203,-649.5 390.203,-649.5 384.203,-643.5 384.203,-637.5 384.203,-637.5 384.203,-420.5 384.203,-420.5 384.203,-414.5 390.203,-408.5 396.203,-408.5"/>
<text text-anchor="middle" x="484.203" y="-634.3" font-family="Times,serif" font-size="14.00">User</text>
<polyline fill="none" stroke="black" points="384.203,-626.5 584.203,-626.5 "/>
<text text-anchor="start" x="392.203" y="-611.3" font-family="Times,serif" font-size="14.00">id :integer</text>
<text text-anchor="start" x="392.203" y="-596.3" font-family="Times,serif" font-size="14.00">email :string</text>
<text text-anchor="start" x="392.203" y="-581.3" font-family="Times,serif" font-size="14.00">encrypted_password :string</text>
<text text-anchor="start" x="392.203" y="-566.3" font-family="Times,serif" font-size="14.00">reset_password_token :string</text>
<text text-anchor="start" x="392.203" y="-551.3" font-family="Times,serif" font-size="14.00">reset_password_sent_at :datetime</text>
<text text-anchor="start" x="392.203" y="-536.3" font-family="Times,serif" font-size="14.00">remember_created_at :datetime</text>
<text text-anchor="start" x="392.203" y="-521.3" font-family="Times,serif" font-size="14.00">sign_in_count :integer</text>
<text text-anchor="start" x="392.203" y="-506.3" font-family="Times,serif" font-size="14.00">current_sign_in_at :datetime</text>
<text text-anchor="start" x="392.203" y="-491.3" font-family="Times,serif" font-size="14.00">last_sign_in_at :datetime</text>
<text text-anchor="start" x="392.203" y="-476.3" font-family="Times,serif" font-size="14.00">current_sign_in_ip :string</text>
<text text-anchor="start" x="392.203" y="-461.3" font-family="Times,serif" font-size="14.00">last_sign_in_ip :string</text>
<text text-anchor="start" x="392.203" y="-446.3" font-family="Times,serif" font-size="14.00">created_at :datetime</text>
<text text-anchor="start" x="392.203" y="-431.3" font-family="Times,serif" font-size="14.00">updated_at :datetime</text>
<text text-anchor="start" x="392.203" y="-416.3" font-family="Times,serif" font-size="14.00">role :integer</text>
</g>
<!-- Order -->
<g id="node8" class="node"><title>Order</title>
<path fill="none" stroke="black" d="M427.703,-175C427.703,-175 540.703,-175 540.703,-175 546.703,-175 552.703,-181 552.703,-187 552.703,-187 552.703,-359 552.703,-359 552.703,-365 546.703,-371 540.703,-371 540.703,-371 427.703,-371 427.703,-371 421.703,-371 415.703,-365 415.703,-359 415.703,-359 415.703,-187 415.703,-187 415.703,-181 421.703,-175 427.703,-175"/>
<text text-anchor="middle" x="484.203" y="-355.8" font-family="Times,serif" font-size="14.00">Order</text>
<polyline fill="none" stroke="black" points="415.703,-348 552.703,-348 "/>
<text text-anchor="start" x="423.703" y="-332.8" font-family="Times,serif" font-size="14.00">id :integer</text>
<text text-anchor="start" x="423.703" y="-317.8" font-family="Times,serif" font-size="14.00">fio :string</text>
<text text-anchor="start" x="423.703" y="-302.8" font-family="Times,serif" font-size="14.00">email :string</text>
<text text-anchor="start" x="423.703" y="-287.8" font-family="Times,serif" font-size="14.00">phone_number :string</text>
<text text-anchor="start" x="423.703" y="-272.8" font-family="Times,serif" font-size="14.00">total_price :float</text>
<text text-anchor="start" x="423.703" y="-257.8" font-family="Times,serif" font-size="14.00">status :integer</text>
<text text-anchor="start" x="423.703" y="-242.8" font-family="Times,serif" font-size="14.00">created_at :datetime</text>
<text text-anchor="start" x="423.703" y="-227.8" font-family="Times,serif" font-size="14.00">updated_at :datetime</text>
<text text-anchor="start" x="423.703" y="-212.8" font-family="Times,serif" font-size="14.00">user_id :integer</text>
<text text-anchor="start" x="423.703" y="-197.8" font-family="Times,serif" font-size="14.00">send_user_id :integer</text>
<text text-anchor="start" x="423.703" y="-182.8" font-family="Times,serif" font-size="14.00">message :text</text>
</g>
<!-- User&#45;&gt;Order -->
<g id="edge4" class="edge"><title>User&#45;&gt;Order</title>
<path fill="none" stroke="#1b1ffc" d="M484.203,-400.238C484.203,-393.982 484.203,-387.728 484.203,-381.538"/>
<ellipse fill="none" stroke="#1b1ffc" cx="484.203" cy="-404.438" rx="4" ry="4"/>
<polygon fill="#1b1ffc" stroke="#1b1ffc" points="484.203,-381.19 488.703,-371.19 484.203,-376.19 484.203,-371.19 484.203,-371.19 484.203,-371.19 484.203,-376.19 479.703,-371.19 484.203,-381.19 484.203,-381.19"/>
</g>
<!-- Tiping -->
<g id="node5" class="node"><title>Tiping</title>
<path fill="none" stroke="black" d="M97.7028,-476C97.7028,-476 204.703,-476 204.703,-476 210.703,-476 216.703,-482 216.703,-488 216.703,-488 216.703,-570 216.703,-570 216.703,-576 210.703,-582 204.703,-582 204.703,-582 97.7028,-582 97.7028,-582 91.7028,-582 85.7028,-576 85.7028,-570 85.7028,-570 85.7028,-488 85.7028,-488 85.7028,-482 91.7028,-476 97.7028,-476"/>
<text text-anchor="middle" x="151.203" y="-566.8" font-family="Times,serif" font-size="14.00">Tiping</text>
<polyline fill="none" stroke="black" points="85.7028,-559 216.703,-559 "/>
<text text-anchor="start" x="93.7028" y="-543.8" font-family="Times,serif" font-size="14.00">id :integer</text>
<text text-anchor="start" x="93.7028" y="-528.8" font-family="Times,serif" font-size="14.00">title :string</text>
<text text-anchor="start" x="93.7028" y="-513.8" font-family="Times,serif" font-size="14.00">description :text</text>
<text text-anchor="start" x="93.7028" y="-498.8" font-family="Times,serif" font-size="14.00">created_at :datetime</text>
<text text-anchor="start" x="93.7028" y="-483.8" font-family="Times,serif" font-size="14.00">updated_at :datetime</text>
</g>
<!-- Tiping&#45;&gt;Product -->
<g id="edge6" class="edge"><title>Tiping&#45;&gt;Product</title>
<path fill="none" stroke="#f054a5" d="M151.203,-467.844C151.203,-439.808 151.203,-405.693 151.203,-373.945"/>
<ellipse fill="none" stroke="#f054a5" cx="151.203" cy="-471.986" rx="4" ry="4"/>
<polygon fill="#f054a5" stroke="#f054a5" points="151.203,-373.73 155.703,-363.73 151.203,-368.73 151.203,-363.73 151.203,-363.73 151.203,-363.73 151.203,-368.73 146.703,-363.73 151.203,-373.73 151.203,-373.73"/>
</g>
<!-- Manufacturer -->
<g id="node6" class="node"><title>Manufacturer</title>
<path fill="none" stroke="black" d="M246.703,-461C246.703,-461 353.703,-461 353.703,-461 359.703,-461 365.703,-467 365.703,-473 365.703,-473 365.703,-585 365.703,-585 365.703,-591 359.703,-597 353.703,-597 353.703,-597 246.703,-597 246.703,-597 240.703,-597 234.703,-591 234.703,-585 234.703,-585 234.703,-473 234.703,-473 234.703,-467 240.703,-461 246.703,-461"/>
<text text-anchor="middle" x="300.203" y="-581.8" font-family="Times,serif" font-size="14.00">Manufacturer</text>
<polyline fill="none" stroke="black" points="234.703,-574 365.703,-574 "/>
<text text-anchor="start" x="242.703" y="-558.8" font-family="Times,serif" font-size="14.00">id :integer</text>
<text text-anchor="start" x="242.703" y="-543.8" font-family="Times,serif" font-size="14.00">title :string</text>
<text text-anchor="start" x="242.703" y="-528.8" font-family="Times,serif" font-size="14.00">description :string</text>
<text text-anchor="start" x="242.703" y="-513.8" font-family="Times,serif" font-size="14.00">country :string</text>
<text text-anchor="start" x="242.703" y="-498.8" font-family="Times,serif" font-size="14.00">city :string</text>
<text text-anchor="start" x="242.703" y="-483.8" font-family="Times,serif" font-size="14.00">created_at :datetime</text>
<text text-anchor="start" x="242.703" y="-468.8" font-family="Times,serif" font-size="14.00">updated_at :datetime</text>
</g>
<!-- Manufacturer&#45;&gt;Product -->
<g id="edge8" class="edge"><title>Manufacturer&#45;&gt;Product</title>
<path fill="none" stroke="#b5f4a4" d="M256.72,-453.874C241.827,-428.486 224.921,-399.666 209.073,-372.65"/>
<ellipse fill="none" stroke="#b5f4a4" cx="258.836" cy="-457.482" rx="4.00002" ry="4.00002"/>
<polygon fill="#b5f4a4" stroke="#b5f4a4" points="209.028,-372.574 207.85,-361.672 206.498,-368.262 203.968,-363.949 203.968,-363.949 203.968,-363.949 206.498,-368.262 200.087,-366.226 209.028,-372.574 209.028,-372.574"/>
</g>
<!-- AdminUser -->
<g id="node7" class="node"><title>AdminUser</title>
<path fill="none" stroke="black" d="M614.203,-416C614.203,-416 790.203,-416 790.203,-416 796.203,-416 802.203,-422 802.203,-428 802.203,-428 802.203,-630 802.203,-630 802.203,-636 796.203,-642 790.203,-642 790.203,-642 614.203,-642 614.203,-642 608.203,-642 602.203,-636 602.203,-630 602.203,-630 602.203,-428 602.203,-428 602.203,-422 608.203,-416 614.203,-416"/>
<text text-anchor="middle" x="702.203" y="-626.8" font-family="Times,serif" font-size="14.00">AdminUser</text>
<polyline fill="none" stroke="black" points="602.203,-619 802.203,-619 "/>
<text text-anchor="start" x="610.203" y="-603.8" font-family="Times,serif" font-size="14.00">id :integer</text>
<text text-anchor="start" x="610.203" y="-588.8" font-family="Times,serif" font-size="14.00">email :string</text>
<text text-anchor="start" x="610.203" y="-573.8" font-family="Times,serif" font-size="14.00">encrypted_password :string</text>
<text text-anchor="start" x="610.203" y="-558.8" font-family="Times,serif" font-size="14.00">reset_password_token :string</text>
<text text-anchor="start" x="610.203" y="-543.8" font-family="Times,serif" font-size="14.00">reset_password_sent_at :datetime</text>
<text text-anchor="start" x="610.203" y="-528.8" font-family="Times,serif" font-size="14.00">remember_created_at :datetime</text>
<text text-anchor="start" x="610.203" y="-513.8" font-family="Times,serif" font-size="14.00">sign_in_count :integer</text>
<text text-anchor="start" x="610.203" y="-498.8" font-family="Times,serif" font-size="14.00">current_sign_in_at :datetime</text>
<text text-anchor="start" x="610.203" y="-483.8" font-family="Times,serif" font-size="14.00">last_sign_in_at :datetime</text>
<text text-anchor="start" x="610.203" y="-468.8" font-family="Times,serif" font-size="14.00">current_sign_in_ip :string</text>
<text text-anchor="start" x="610.203" y="-453.8" font-family="Times,serif" font-size="14.00">last_sign_in_ip :string</text>
<text text-anchor="start" x="610.203" y="-438.8" font-family="Times,serif" font-size="14.00">created_at :datetime</text>
<text text-anchor="start" x="610.203" y="-423.8" font-family="Times,serif" font-size="14.00">updated_at :datetime</text>
</g>
<!-- Order&#45;&gt;LineItem -->
<g id="edge11" class="edge"><title>Order&#45;&gt;LineItem</title>
<path fill="none" stroke="#efc79f" d="M408.671,-226.182C353.832,-192.916 279.995,-148.126 225.455,-115.042"/>
<ellipse fill="none" stroke="#efc79f" cx="412.189" cy="-228.316" rx="4.00002" ry="4.00002"/>
<polygon fill="#efc79f" stroke="#efc79f" points="225.423,-115.023 219.207,-105.989 221.148,-112.429 216.873,-109.836 216.873,-109.836 216.873,-109.836 221.148,-112.429 214.539,-113.684 225.423,-115.023 225.423,-115.023"/>
</g>
<!-- Tiding -->
<g id="node9" class="node"><title>Tiding</title>
<path fill="none" stroke="black" d="M870.703,-468.5C870.703,-468.5 977.703,-468.5 977.703,-468.5 983.703,-468.5 989.703,-474.5 989.703,-480.5 989.703,-480.5 989.703,-577.5 989.703,-577.5 989.703,-583.5 983.703,-589.5 977.703,-589.5 977.703,-589.5 870.703,-589.5 870.703,-589.5 864.703,-589.5 858.703,-583.5 858.703,-577.5 858.703,-577.5 858.703,-480.5 858.703,-480.5 858.703,-474.5 864.703,-468.5 870.703,-468.5"/>
<text text-anchor="middle" x="924.203" y="-574.3" font-family="Times,serif" font-size="14.00">Tiding</text>
<polyline fill="none" stroke="black" points="858.703,-566.5 989.703,-566.5 "/>
<text text-anchor="start" x="866.703" y="-551.3" font-family="Times,serif" font-size="14.00">id :integer</text>
<text text-anchor="start" x="866.703" y="-536.3" font-family="Times,serif" font-size="14.00">title :string</text>
<text text-anchor="start" x="866.703" y="-521.3" font-family="Times,serif" font-size="14.00">description :text</text>
<text text-anchor="start" x="866.703" y="-506.3" font-family="Times,serif" font-size="14.00">image_url :string</text>
<text text-anchor="start" x="866.703" y="-491.3" font-family="Times,serif" font-size="14.00">created_at :datetime</text>
<text text-anchor="start" x="866.703" y="-476.3" font-family="Times,serif" font-size="14.00">updated_at :datetime</text>
</g>
<!-- ActiveRecord::Base -->
<g id="node10" class="node"><title>ActiveRecord::Base</title>
<ellipse fill="none" stroke="black" cx="392.203" cy="-725" rx="81.3646" ry="18"/>
<text text-anchor="middle" x="392.203" y="-721.3" font-family="Times,serif" font-size="14.00">ActiveRecord::Base</text>
</g>
<!-- ActiveRecord::Base&#45;&gt;LineItem -->
<g id="edge1" class="edge"><title>ActiveRecord::Base&#45;&gt;LineItem</title>
<path fill="none" stroke="black" d="M360.492,-708.362C343.324,-700.515 321.523,-691.527 301.203,-686 244.069,-670.461 76.1393,-694.606 37.2028,-650 -32.3916,-570.271 9.78569,-270.958 52.2028,-174 59.9961,-156.186 72.2309,-139.573 85.4773,-125.082"/>
</g>
<!-- ActiveRecord::Base&#45;&gt;Product -->
<g id="edge3" class="edge"><title>ActiveRecord::Base&#45;&gt;Product</title>
<path fill="none" stroke="black" d="M360.02,-708.362C342.902,-700.612 321.293,-691.714 301.203,-686 252.499,-672.147 109.058,-688.53 76.2028,-650 8.39486,-570.48 51.9661,-447.078 95.8066,-363.526"/>
</g>
<!-- ActiveRecord::Base&#45;&gt;User -->
<g id="edge5" class="edge"><title>ActiveRecord::Base&#45;&gt;User</title>
<path fill="none" stroke="black" d="M400.367,-706.784C406.92,-692.967 416.758,-672.22 427.416,-649.746"/>
</g>
<!-- ActiveRecord::Base&#45;&gt;Tiping -->
<g id="edge7" class="edge"><title>ActiveRecord::Base&#45;&gt;Tiping</title>
<path fill="none" stroke="black" d="M356.22,-708.698C308.738,-688.413 230.503,-654.627 225.203,-650 203.998,-631.489 186.911,-605.394 174.522,-582.263"/>
</g>
<!-- ActiveRecord::Base&#45;&gt;Manufacturer -->
<g id="edge9" class="edge"><title>ActiveRecord::Base&#45;&gt;Manufacturer</title>
<path fill="none" stroke="black" d="M384.038,-706.784C372.429,-682.302 350.502,-636.066 331.985,-597.018"/>
</g>
<!-- ActiveRecord::Base&#45;&gt;AdminUser -->
<g id="edge10" class="edge"><title>ActiveRecord::Base&#45;&gt;AdminUser</title>
<path fill="none" stroke="black" d="M446.707,-711.561C489.138,-700.146 548.183,-680.344 593.203,-650 596.937,-647.483 600.63,-644.812 604.273,-642.016"/>
</g>
<!-- ActiveRecord::Base&#45;&gt;Order -->
<g id="edge12" class="edge"><title>ActiveRecord::Base&#45;&gt;Order</title>
<path fill="none" stroke="black" d="M472.046,-721.669C581.315,-716.604 768.773,-700.58 811.203,-650 845.765,-608.799 841.165,-452.658 811.203,-408 753.691,-322.28 630.529,-291.354 552.853,-280.224"/>
</g>
<!-- ActiveRecord::Base&#45;&gt;Tiding -->
<g id="edge13" class="edge"><title>ActiveRecord::Base&#45;&gt;Tiding</title>
<path fill="none" stroke="black" d="M468.888,-718.816C581.142,-710.008 783.465,-689.148 844.203,-650 866.827,-635.418 884.557,-611.922 897.514,-589.57"/>
</g>
</g>
</svg>
